<?xml version="1.0" encoding="utf-8"?>
<svg version="1.1" id="Layer_1"
xmlns="http://www.w3.org/2000/svg"
xmlns:xlink="http://www.w3.org/1999/xlink"
width="550px" height="400px"
xml:space="preserve">
<g id="PathID_1" transform="matrix(3.05646, 0, 0, 3.05646, 45.1, 15.75)" opacity="1">
<path style="fill:#4A7DBC;fill-opacity:1" d="M149.2 6.15L149.2 58.6L52.85 58.6L52.85 6.4Q52.85 4.2 54.7 2.1Q56.55 0 58.7 0L143.95 0Q145.85 0 147.6 2.1Q149.2 4.05 149.2 6.15M121.05 78.2Q122.65 79.75 124.85 79.75Q127.05 79.75 128.65 78.2Q130.3 76.6 130.3 74.4Q130.3 72.2 128.65 70.6Q127.05 69.05 124.85 69.05Q122.65 69.05 121.05 70.6Q119.45 72.2 119.45 74.4Q119.45 76.6 121.05 78.2M115.4 65.1Q119.4 61.2 124.85 61.2Q130.35 61.2 134.3 65.1Q138.2 68.95 138.2 74.4Q138.2 79.85 134.3 83.65Q130.35 87.55 124.85 87.55Q119.4 87.55 115.4 83.65Q111.5 79.85 111.5 74.4Q111.5 68.95 115.4 65.1M109.95 74.4L45.3 74.4Q45.3 68.2 40.95 63.9Q36.55 59.6 30.3 59.6Q24.15 59.6 19.75 63.9Q15.35 68.2 15.35 74.4L7.75 74.4Q5.6 74.4 4.05 72.8Q2.6 71.35 2.15 68.95L0.05 46.05Q-0.2 43.3 0.55 41.1L6.15 24.4Q8.1 18.9 11.7 18.9L44.15 18.9Q46.45 18.9 48.1 20.55Q49.7 22.2 49.7 24.4L49.7 61.05L118.35 61.05Q114.55 62.9 112.25 66.45Q109.95 70.1 109.95 74.4M131.35 61.05L149.2 61.05L149.2 74.4L139.85 74.4Q139.85 70.1 137.45 66.45Q135.15 62.9 131.35 61.05M11.4 27.35L8 40.1Q7.75 41.05 8.6 41.8Q9.35 42.5 10.45 42.5L37.95 42.5Q39 42.5 39.75 41.8Q40.45 41.05 40.45 40.1L40.45 27.35Q40.45 26.45 39.75 25.8Q39 25.05 37.95 25.05L13.9 25.05Q12.05 25.05 11.4 27.35M30.3 69.05Q28.1 69.05 26.5 70.6Q24.9 72.2 24.9 74.4Q24.9 76.6 26.5 78.2Q28.1 79.75 30.3 79.75Q32.6 79.75 34.15 78.2Q35.7 76.6 35.7 74.4Q35.7 72.2 34.15 70.6Q32.6 69.05 30.3 69.05M30.3 61.2Q35.8 61.2 39.75 65.1Q43.6 68.95 43.6 74.4Q43.6 79.85 39.75 83.65Q35.8 87.55 30.3 87.55Q24.8 87.55 20.95 83.65Q17.05 79.85 17.05 74.4Q17.05 68.9 20.95 65.1Q24.8 61.2 30.3 61.2" />
</g>
<g id="PathID_2" transform="matrix(3.05646, 0, 0, 3.05646, 45.1, 15.75)" opacity="1">
</g>
<g id="PathID_3" transform="matrix(1.44, 0, 0, 1.44, 247.95, 50.15)" opacity="1">
<path style="fill:#FFFFFF;fill-opacity:1" d="M127.95 23.9Q122.9 14.3 113.75 8.6Q104.3 2.7 93.15 2.7Q85.15 2.7 77.85 5.8Q70.8 8.8 65.35 14.2Q60.35 19.25 57.4 25.65Q54.4 32.3 53.9 39.55L51.2 39.85Q51.6 31.95 54.85 24.75Q58.05 17.75 63.5 12.35Q69.3 6.5 76.8 3.35Q79.65 2.1 82.6 1.35Q87.75 0 93.15 0Q98.65 0 103.75 1.35Q109.95 3 115.5 6.55Q125.5 12.85 130.75 23.4Q129.25 23.4 127.95 23.9M134.9 38Q135.75 47.3 132.6 56.15Q129.4 64.95 122.8 71.55Q116.95 77.4 109.45 80.55Q101.65 83.85 93.15 83.85Q80.3 83.85 69.6 76.65Q59.25 69.65 54.4 58.15Q55.85 58 57.05 57.45Q61.65 68.05 71.3 74.55Q81.2 81.15 93.15 81.15Q101.1 81.15 108.4 78.1Q115.4 75.1 120.85 69.65Q126.95 63.55 129.95 55.45Q132.95 47.3 132.25 38.7L134.9 38M5.75 45.2L7.45 43.8L7.6 43.75L7.85 43.6L7.9 43.6L8.15 43.5L8.45 43.4L8.5 43.35L8.6 43.35L8.8 43.25L8.85 43.25L9.15 43.15Q16.3 41 39.5 41.75L39.75 41.75L42.85 41.85L45.2 41.95L59.8 42.65L61.3 42.7L77.85 43.55L79.05 43.65L79.4 43.65L79.85 43.65L81.4 43.7L97.55 37.5L100.45 36.05L106.45 36.45L103.65 37.95L108.05 38.6L110.7 38.15Q112.25 37.75 112.95 37.15L122.2 29.6L112.5 28.55L126.2 27.95L124.75 29.8L145.05 22.8L150 23L138.4 28.15L140.9 29.4L139.25 30.25L146.1 33.75L141.5 34.6L134.45 32.55L127.4 43.2Q126.1 45.5 128.1 46.55L129.4 47.45L129.25 50.35L111.2 53.75L108.25 54.1L107.2 54.2L106.2 54.3L92.05 55.5L89.3 55.7L94.45 57.4L91.95 58.85L87.4 59.25L95.5 61.7L101.9 64.2L94.85 64.65Q80.2 62.25 61.9 56.55L64.4 54.7L45.15 54L25.95 53.15L12.8 52.35Q5.5 51.7 1.55 50.15L1.4 50.1L0.5 49.7L0 48.75L1.4 47.5L4.35 45.9L4.4 45.9L5.75 45.2" />
</g>
<g id="PathID_4" transform="matrix(1.44, 0, 0, 1.44, 247.95, 50.15)" opacity="1">
</g>
<g id="PathID_5" transform="matrix(1.875, 0, 0, 1.875, 31, 354.4)" opacity="1">
<path style="fill:#4A7EBC;fill-opacity:1" d="M22.55 -13.25Q22.55 -17.9 20.25 -20.4Q17.95 -22.9 14.1 -22.9Q11.95 -22.9 10.75 -22.75Q9.55 -22.6 8.85 -22.4L8.85 -5.6Q9.7 -4.9 11.35 -4.25Q13 -3.55 14.95 -3.55Q17 -3.55 18.45 -4.3Q19.9 -5.05 20.85 -6.35Q21.75 -7.65 22.15 -9.45Q22.55 -11.2 22.55 -13.25M27.55 -13.25Q27.55 -10.25 26.75 -7.65Q25.95 -5.1 24.4 -3.25Q22.85 -1.4 20.65 -0.4Q18.4 0.6 15.55 0.6Q13.25 0.6 11.5 0Q9.7 -0.6 8.85 -1.15L8.85 9.45L4.1 9.45L4.1 -25.8L8.3 -26.7Q10.85 -27.15 14.15 -27.15Q17.25 -27.15 19.7 -26.2Q22.15 -25.25 23.9 -23.45Q25.65 -21.65 26.6 -19.05Q27.55 -16.45 27.55 -13.25" />
</g>
<g id="PathID_6" transform="matrix(1.875, 0, 0, 1.875, 31, 354.4)" opacity="1">
</g>
<g id="PathID_7" transform="matrix(1.875, 0, 0, 1.875, 87.5, 354.4)" opacity="1">
<path style="fill:#4A7EBC;fill-opacity:1" d="M13.9 -27.15L15.3 -27.1L16.9 -26.9L18.3 -26.65L19.25 -26.4L18.4 -22.25L16.55 -22.75Q15.25 -23.05 13.2 -23.05Q11.85 -23.05 10.55 -22.75L8.85 -22.35L8.85 0L4.1 0L4.1 -25.5Q5.75 -26.1 8.3 -26.65Q10.8 -27.15 13.9 -27.15" />
</g>
<g id="PathID_8" transform="matrix(1.875, 0, 0, 1.875, 87.5, 354.4)" opacity="1">
</g>
<g id="PathID_9" transform="matrix(1.875, 0, 0, 1.875, 124.5, 354.4)" opacity="1">
<path style="fill:#4A7EBC;fill-opacity:1" d="M27.6 -13.3Q27.6 -10.1 26.65 -7.55Q25.75 -5 24.1 -3.15Q22.4 -1.3 20.1 -0.3Q17.8 0.65 15.1 0.65Q12.4 0.65 10.05 -0.3Q7.75 -1.3 6.1 -3.15Q4.45 -5 3.5 -7.55Q2.6 -10.1 2.6 -13.3Q2.6 -16.4 3.5 -19Q4.45 -21.6 6.1 -23.45Q7.75 -25.3 10.05 -26.3Q12.4 -27.3 15.1 -27.3Q17.8 -27.3 20.1 -26.3Q22.4 -25.3 24.1 -23.45Q25.75 -21.6 26.65 -19Q27.6 -16.4 27.6 -13.3M22.6 -13.3Q22.6 -17.8 20.6 -20.45Q18.55 -23.1 15.1 -23.1Q11.6 -23.1 9.6 -20.45Q7.55 -17.8 7.55 -13.3Q7.55 -8.8 9.6 -6.15Q11.6 -3.5 15.1 -3.5Q18.55 -3.5 20.6 -6.15Q22.6 -8.8 22.6 -13.3" />
</g>
<g id="PathID_10" transform="matrix(1.875, 0, 0, 1.875, 124.5, 354.4)" opacity="1">
</g>
<g id="PathID_11" transform="matrix(1.875, 0, 0, 1.875, 181.1, 354.4)" opacity="1">
<path style="fill:#4A7EBC;fill-opacity:1" d="M10.3 -3.4Q13.2 -3.4 14.6 -4.2Q16 -4.95 16 -6.65Q16 -8.4 14.65 -9.4Q13.25 -10.45 10.05 -11.7L7.15 -12.95Q5.7 -13.6 4.7 -14.5Q3.65 -15.35 3.05 -16.6Q2.45 -17.8 2.45 -19.6Q2.45 -23.15 5.05 -25.2Q7.65 -27.3 12.15 -27.3Q13.3 -27.3 14.45 -27.15L16.55 -26.85L18.25 -26.45L19.4 -26.1L18.5 -22Q17.75 -22.4 16.1 -22.85Q14.5 -23.3 12.15 -23.3Q10.2 -23.3 8.7 -22.5Q7.2 -21.7 7.2 -20Q7.2 -19.15 7.55 -18.45Q7.85 -17.8 8.55 -17.25Q9.25 -16.75 10.3 -16.25Q11.3 -15.8 12.75 -15.3Q14.65 -14.6 16.1 -13.9Q17.6 -13.2 18.65 -12.3Q19.7 -11.35 20.25 -10.05Q20.85 -8.75 20.85 -6.85Q20.85 -3.15 18.1 -1.25Q15.35 0.6 10.3 0.6Q6.75 0.6 4.75 0Q2.75 -0.55 2.05 -0.85L2.9 -4.95L5.5 -4.05Q7.3 -3.4 10.3 -3.4" />
</g>
<g id="PathID_12" transform="matrix(1.875, 0, 0, 1.875, 181.1, 354.4)" opacity="1">
</g>
<g id="PathID_13" transform="matrix(1.875, 0, 0, 1.875, 223.9, 354.4)" opacity="1">
<path style="fill:#4A7EBC;fill-opacity:1" d="M8.55 -26.6L18.6 -26.6L18.6 -22.6L8.55 -22.6L8.55 -10.35Q8.55 -8.35 8.85 -7.05Q9.15 -5.7 9.75 -5Q10.4 -4.25 11.3 -3.95Q12.2 -3.6 13.45 -3.6Q15.6 -3.6 16.9 -4.1L18.75 -4.8L19.65 -0.85Q18.95 -0.5 17.15 0Q15.35 0.55 13.05 0.55Q10.35 0.55 8.55 -0.1Q6.8 -0.8 5.7 -2.2Q4.65 -3.55 4.2 -5.6Q3.8 -7.6 3.8 -10.3L3.8 -34.05L8.55 -34.85L8.55 -26.6" />
</g>
<g id="PathID_14" transform="matrix(1.875, 0, 0, 1.875, 223.9, 354.4)" opacity="1">
</g>
<g id="PathID_15" transform="matrix(1.875, 0, 0, 1.875, 262.5, 354.4)" opacity="1">
<path style="fill:#4A7EBC;fill-opacity:1" d="M27.6 -13.3Q27.6 -10.1 26.65 -7.55Q25.75 -5 24.1 -3.15Q22.4 -1.3 20.1 -0.3Q17.8 0.65 15.1 0.65Q12.4 0.65 10.05 -0.3Q7.75 -1.3 6.1 -3.15Q4.45 -5 3.5 -7.55Q2.6 -10.1 2.6 -13.3Q2.6 -16.4 3.5 -19Q4.45 -21.6 6.1 -23.45Q7.75 -25.3 10.05 -26.3Q12.4 -27.3 15.1 -27.3Q17.8 -27.3 20.1 -26.3Q22.4 -25.3 24.1 -23.45Q25.75 -21.6 26.65 -19Q27.6 -16.4 27.6 -13.3M22.6 -13.3Q22.6 -17.8 20.6 -20.45Q18.55 -23.1 15.1 -23.1Q11.6 -23.1 9.6 -20.45Q7.55 -17.8 7.55 -13.3Q7.55 -8.8 9.6 -6.15Q11.6 -3.5 15.1 -3.5Q18.55 -3.5 20.6 -6.15Q22.6 -8.8 22.6 -13.3" />
</g>
<g id="PathID_16" transform="matrix(1.875, 0, 0, 1.875, 262.5, 354.4)" opacity="1">
</g>
<g id="PathID_17" transform="matrix(1.875, 0, 0, 1.875, 319.1, 354.4)" opacity="1">
<path style="fill:#4A7EBC;fill-opacity:1" d="M22.55 -13.25Q22.55 -17.9 20.25 -20.4Q17.95 -22.9 14.1 -22.9Q11.95 -22.9 10.75 -22.75Q9.55 -22.6 8.85 -22.4L8.85 -5.6Q9.7 -4.9 11.35 -4.25Q13 -3.55 14.95 -3.55Q17 -3.55 18.45 -4.3Q19.9 -5.05 20.85 -6.35Q21.75 -7.65 22.15 -9.45Q22.55 -11.2 22.55 -13.25M27.55 -13.25Q27.55 -10.25 26.75 -7.65Q25.95 -5.1 24.4 -3.25Q22.85 -1.4 20.65 -0.4Q18.4 0.6 15.55 0.6Q13.25 0.6 11.5 0Q9.7 -0.6 8.85 -1.15L8.85 9.45L4.1 9.45L4.1 -25.8L8.3 -26.7Q10.85 -27.15 14.15 -27.15Q17.25 -27.15 19.7 -26.2Q22.15 -25.25 23.9 -23.45Q25.65 -21.65 26.6 -19.05Q27.55 -16.45 27.55 -13.25" />
</g>
<g id="PathID_18" transform="matrix(1.875, 0, 0, 1.875, 319.1, 354.4)" opacity="1">
</g>
<g id="PathID_19" transform="matrix(1.875, 0, 0, 1.875, 375.6, 354.4)" opacity="1">
<path style="fill:#4A7EBC;fill-opacity:1" d="M27.6 -13.3Q27.6 -10.1 26.65 -7.55Q25.75 -5 24.1 -3.15Q22.4 -1.3 20.1 -0.3Q17.8 0.65 15.1 0.65Q12.4 0.65 10.05 -0.3Q7.75 -1.3 6.1 -3.15Q4.45 -5 3.5 -7.55Q2.6 -10.1 2.6 -13.3Q2.6 -16.4 3.5 -19Q4.45 -21.6 6.1 -23.45Q7.75 -25.3 10.05 -26.3Q12.4 -27.3 15.1 -27.3Q17.8 -27.3 20.1 -26.3Q22.4 -25.3 24.1 -23.45Q25.75 -21.6 26.65 -19Q27.6 -16.4 27.6 -13.3M22.6 -13.3Q22.6 -17.8 20.6 -20.45Q18.55 -23.1 15.1 -23.1Q11.6 -23.1 9.6 -20.45Q7.55 -17.8 7.55 -13.3Q7.55 -8.8 9.6 -6.15Q11.6 -3.5 15.1 -3.5Q18.55 -3.5 20.6 -6.15Q22.6 -8.8 22.6 -13.3" />
</g>
<g id="PathID_20" transform="matrix(1.875, 0, 0, 1.875, 375.6, 354.4)" opacity="1">
</g>
<g id="PathID_21" transform="matrix(1.875, 0, 0, 1.875, 432.2, 354.4)" opacity="1">
<path style="fill:#4A7EBC;fill-opacity:1" d="M10.3 -3.4Q13.2 -3.4 14.6 -4.2Q16 -4.95 16 -6.65Q16 -8.4 14.65 -9.4Q13.25 -10.45 10.05 -11.7L7.15 -12.95Q5.7 -13.6 4.7 -14.5Q3.65 -15.35 3.05 -16.6Q2.45 -17.8 2.45 -19.6Q2.45 -23.15 5.05 -25.2Q7.65 -27.3 12.15 -27.3Q13.3 -27.3 14.45 -27.15L16.55 -26.85L18.25 -26.45L19.4 -26.1L18.5 -22Q17.75 -22.4 16.1 -22.85Q14.5 -23.3 12.15 -23.3Q10.2 -23.3 8.7 -22.5Q7.2 -21.7 7.2 -20Q7.2 -19.15 7.55 -18.45Q7.85 -17.8 8.55 -17.25Q9.25 -16.75 10.3 -16.25Q11.3 -15.8 12.75 -15.3Q14.65 -14.6 16.1 -13.9Q17.6 -13.2 18.65 -12.3Q19.7 -11.35 20.25 -10.05Q20.85 -8.75 20.85 -6.85Q20.85 -3.15 18.1 -1.25Q15.35 0.6 10.3 0.6Q6.75 0.6 4.75 0Q2.75 -0.55 2.05 -0.85L2.9 -4.95L5.5 -4.05Q7.3 -3.4 10.3 -3.4" />
</g>
<g id="PathID_22" transform="matrix(1.875, 0, 0, 1.875, 432.2, 354.4)" opacity="1">
</g>
<g id="PathID_23" transform="matrix(1.875, 0, 0, 1.875, 475, 354.4)" opacity="1">
<path style="fill:#4A7EBC;fill-opacity:1" d="M8.55 -26.6L18.6 -26.6L18.6 -22.6L8.55 -22.6L8.55 -10.35Q8.55 -8.35 8.85 -7.05Q9.15 -5.7 9.75 -5Q10.4 -4.25 11.3 -3.95Q12.2 -3.6 13.45 -3.6Q15.6 -3.6 16.9 -4.1L18.75 -4.8L19.65 -0.85Q18.95 -0.5 17.15 0Q15.35 0.55 13.05 0.55Q10.35 0.55 8.55 -0.1Q6.8 -0.8 5.7 -2.2Q4.65 -3.55 4.2 -5.6Q3.8 -7.6 3.8 -10.3L3.8 -34.05L8.55 -34.85L8.55 -26.6" />
</g>
<g id="PathID_24" transform="matrix(1.875, 0, 0, 1.875, 475, 354.4)" opacity="1">
</g>
</svg>
