<?xml version="1.0" encoding="utf-8"?>
<svg version="1.1" id="Layer_1"
xmlns="http://www.w3.org/2000/svg"
xmlns:xlink="http://www.w3.org/1999/xlink"
width="596px" height="149px"
xml:space="preserve">
<g id="PathID_1" transform="matrix(1.36557, 0, 0, 1.36557, 20.15, 17.7)" opacity="1">
<path style="fill:#4A7DBC;fill-opacity:1" d="M149.2 6.15L149.2 58.6L52.85 58.6L52.85 6.4Q52.85 4.2 54.7 2.1Q56.55 0 58.7 0L143.95 0Q145.85 0 147.6 2.1Q149.2 4.05 149.2 6.15M121.05 78.2Q122.65 79.75 124.85 79.75Q127.05 79.75 128.65 78.2Q130.3 76.6 130.3 74.4Q130.3 72.2 128.65 70.6Q127.05 69.05 124.85 69.05Q122.65 69.05 121.05 70.6Q119.45 72.2 119.45 74.4Q119.45 76.6 121.05 78.2M115.4 65.1Q119.4 61.2 124.85 61.2Q130.35 61.2 134.3 65.1Q138.2 68.95 138.2 74.4Q138.2 79.85 134.3 83.65Q130.35 87.55 124.85 87.55Q119.4 87.55 115.4 83.65Q111.5 79.85 111.5 74.4Q111.5 68.95 115.4 65.1M109.95 74.4L45.3 74.4Q45.3 68.2 40.95 63.9Q36.55 59.6 30.3 59.6Q24.15 59.6 19.75 63.9Q15.35 68.2 15.35 74.4L7.75 74.4Q5.6 74.4 4.05 72.8Q2.6 71.35 2.15 68.95L0.05 46.05Q-0.2 43.3 0.55 41.1L6.15 24.4Q8.1 18.9 11.7 18.9L44.15 18.9Q46.45 18.9 48.1 20.55Q49.7 22.2 49.7 24.4L49.7 61.05L118.35 61.05Q114.55 62.9 112.25 66.45Q109.95 70.1 109.95 74.4M131.35 61.05L149.2 61.05L149.2 74.4L139.85 74.4Q139.85 70.1 137.45 66.45Q135.15 62.9 131.35 61.05M11.4 27.35L8 40.1Q7.75 41.05 8.6 41.8Q9.35 42.5 10.45 42.5L37.95 42.5Q39 42.5 39.75 41.8Q40.45 41.05 40.45 40.1L40.45 27.35Q40.45 26.45 39.75 25.8Q39 25.05 37.95 25.05L13.9 25.05Q12.05 25.05 11.4 27.35M30.3 69.05Q28.1 69.05 26.5 70.6Q24.9 72.2 24.9 74.4Q24.9 76.6 26.5 78.2Q28.1 79.75 30.3 79.75Q32.6 79.75 34.15 78.2Q35.7 76.6 35.7 74.4Q35.7 72.2 34.15 70.6Q32.6 69.05 30.3 69.05M30.3 61.2Q35.8 61.2 39.75 65.1Q43.6 68.95 43.6 74.4Q43.6 79.85 39.75 83.65Q35.8 87.55 30.3 87.55Q24.8 87.55 20.95 83.65Q17.05 79.85 17.05 74.4Q17.05 68.9 20.95 65.1Q24.8 61.2 30.3 61.2" />
</g>
<g id="PathID_2" transform="matrix(1.36557, 0, 0, 1.36557, 20.15, 17.7)" opacity="1">
</g>
<g id="PathID_3" transform="matrix(0.643364, 0, 0, 0.643364, 110.8, 33.05)" opacity="1">
<path style="fill:#FFFFFF;fill-opacity:1" d="M127.95 23.9Q122.9 14.3 113.75 8.6Q104.3 2.7 93.15 2.7Q85.15 2.7 77.85 5.8Q70.8 8.8 65.35 14.2Q60.35 19.25 57.4 25.65Q54.4 32.3 53.9 39.55L51.2 39.85Q51.6 31.95 54.85 24.75Q58.05 17.75 63.5 12.35Q69.3 6.5 76.8 3.35Q79.65 2.1 82.6 1.35Q87.75 0 93.15 0Q98.65 0 103.75 1.35Q109.95 3 115.5 6.55Q125.5 12.85 130.75 23.4Q129.25 23.4 127.95 23.9M134.9 38Q135.75 47.3 132.6 56.15Q129.4 64.95 122.8 71.55Q116.95 77.4 109.45 80.55Q101.65 83.85 93.15 83.85Q80.3 83.85 69.6 76.65Q59.25 69.65 54.4 58.15Q55.85 58 57.05 57.45Q61.65 68.05 71.3 74.55Q81.2 81.15 93.15 81.15Q101.1 81.15 108.4 78.1Q115.4 75.1 120.85 69.65Q126.95 63.55 129.95 55.45Q132.95 47.3 132.25 38.7L134.9 38M5.75 45.2L7.45 43.8L7.6 43.75L7.85 43.6L7.9 43.6L8.15 43.5L8.45 43.4L8.5 43.35L8.6 43.35L8.8 43.25L8.85 43.25L9.15 43.15Q16.3 41 39.5 41.75L39.75 41.75L42.85 41.85L45.2 41.95L59.8 42.65L61.3 42.7L77.85 43.55L79.05 43.65L79.4 43.65L79.85 43.65L81.4 43.7L97.55 37.5L100.45 36.05L106.45 36.45L103.65 37.95L108.05 38.6L110.7 38.15Q112.25 37.75 112.95 37.15L122.2 29.6L112.5 28.55L126.2 27.95L124.75 29.8L145.05 22.8L150 23L138.4 28.15L140.9 29.4L139.25 30.25L146.1 33.75L141.5 34.6L134.45 32.55L127.4 43.2Q126.1 45.5 128.1 46.55L129.4 47.45L129.25 50.35L111.2 53.75L108.25 54.1L107.2 54.2L106.2 54.3L92.05 55.5L89.3 55.7L94.45 57.4L91.95 58.85L87.4 59.25L95.5 61.7L101.9 64.2L94.85 64.65Q80.2 62.25 61.9 56.55L64.4 54.7L45.15 54L25.95 53.15L12.8 52.35Q5.5 51.7 1.55 50.15L1.4 50.1L0.5 49.7L0 48.75L1.4 47.5L4.35 45.9L4.4 45.9L5.75 45.2" />
</g>
<g id="PathID_4" transform="matrix(0.643364, 0, 0, 0.643364, 110.8, 33.05)" opacity="1">
</g>
<g id="PathID_5" transform="matrix(1.20149, 0, 0, 1.20149, 254.95, 57.8)" opacity="1">
<path style="fill:#4A7EBC;fill-opacity:1" d="M22.55 -13.25Q22.55 -17.9 20.25 -20.4Q17.95 -22.9 14.1 -22.9Q11.95 -22.9 10.75 -22.75Q9.55 -22.6 8.85 -22.4L8.85 -5.6Q9.7 -4.9 11.35 -4.25Q13 -3.55 14.95 -3.55Q17 -3.55 18.45 -4.3Q19.9 -5.05 20.85 -6.35Q21.75 -7.65 22.15 -9.45Q22.55 -11.2 22.55 -13.25M27.55 -13.25Q27.55 -10.25 26.75 -7.65Q25.95 -5.1 24.4 -3.25Q22.85 -1.4 20.65 -0.4Q18.4 0.6 15.55 0.6Q13.25 0.6 11.5 0Q9.7 -0.6 8.85 -1.15L8.85 9.45L4.1 9.45L4.1 -25.8L8.3 -26.7Q10.85 -27.15 14.15 -27.15Q17.25 -27.15 19.7 -26.2Q22.15 -25.25 23.9 -23.45Q25.65 -21.65 26.6 -19.05Q27.55 -16.45 27.55 -13.25" />
</g>
<g id="PathID_6" transform="matrix(1.20149, 0, 0, 1.20149, 254.95, 57.8)" opacity="1">
</g>
<g id="PathID_7" transform="matrix(1.20149, 0, 0, 1.20149, 291.15, 57.8)" opacity="1">
<path style="fill:#4A7EBC;fill-opacity:1" d="M13.9 -27.15L15.3 -27.1L16.9 -26.9L18.3 -26.65L19.25 -26.4L18.4 -22.25L16.55 -22.75Q15.25 -23.05 13.2 -23.05Q11.85 -23.05 10.55 -22.75L8.85 -22.35L8.85 0L4.1 0L4.1 -25.5Q5.75 -26.1 8.3 -26.65Q10.8 -27.15 13.9 -27.15" />
</g>
<g id="PathID_8" transform="matrix(1.20149, 0, 0, 1.20149, 291.15, 57.8)" opacity="1">
</g>
<g id="PathID_9" transform="matrix(1.20149, 0, 0, 1.20149, 314.85, 57.8)" opacity="1">
<path style="fill:#4A7EBC;fill-opacity:1" d="M27.6 -13.3Q27.6 -10.1 26.65 -7.55Q25.75 -5 24.1 -3.15Q22.4 -1.3 20.1 -0.3Q17.8 0.65 15.1 0.65Q12.4 0.65 10.05 -0.3Q7.75 -1.3 6.1 -3.15Q4.45 -5 3.5 -7.55Q2.6 -10.1 2.6 -13.3Q2.6 -16.4 3.5 -19Q4.45 -21.6 6.1 -23.45Q7.75 -25.3 10.05 -26.3Q12.4 -27.3 15.1 -27.3Q17.8 -27.3 20.1 -26.3Q22.4 -25.3 24.1 -23.45Q25.75 -21.6 26.65 -19Q27.6 -16.4 27.6 -13.3M22.6 -13.3Q22.6 -17.8 20.6 -20.45Q18.55 -23.1 15.1 -23.1Q11.6 -23.1 9.6 -20.45Q7.55 -17.8 7.55 -13.3Q7.55 -8.8 9.6 -6.15Q11.6 -3.5 15.1 -3.5Q18.55 -3.5 20.6 -6.15Q22.6 -8.8 22.6 -13.3" />
</g>
<g id="PathID_10" transform="matrix(1.20149, 0, 0, 1.20149, 314.85, 57.8)" opacity="1">
</g>
<g id="PathID_11" transform="matrix(1.20149, 0, 0, 1.20149, 351.15, 57.8)" opacity="1">
<path style="fill:#4A7EBC;fill-opacity:1" d="M10.3 -3.4Q13.2 -3.4 14.6 -4.2Q16 -4.95 16 -6.65Q16 -8.4 14.65 -9.4Q13.25 -10.45 10.05 -11.7L7.15 -12.95Q5.7 -13.6 4.7 -14.5Q3.65 -15.35 3.05 -16.6Q2.45 -17.8 2.45 -19.6Q2.45 -23.15 5.05 -25.2Q7.65 -27.3 12.15 -27.3Q13.3 -27.3 14.45 -27.15L16.55 -26.85L18.25 -26.45L19.4 -26.1L18.5 -22Q17.75 -22.4 16.1 -22.85Q14.5 -23.3 12.15 -23.3Q10.2 -23.3 8.7 -22.5Q7.2 -21.7 7.2 -20Q7.2 -19.15 7.55 -18.45Q7.85 -17.8 8.55 -17.25Q9.25 -16.75 10.3 -16.25Q11.3 -15.8 12.75 -15.3Q14.65 -14.6 16.1 -13.9Q17.6 -13.2 18.65 -12.3Q19.7 -11.35 20.25 -10.05Q20.85 -8.75 20.85 -6.85Q20.85 -3.15 18.1 -1.25Q15.35 0.6 10.3 0.6Q6.75 0.6 4.75 0Q2.75 -0.55 2.05 -0.85L2.9 -4.95L5.5 -4.05Q7.3 -3.4 10.3 -3.4" />
</g>
<g id="PathID_12" transform="matrix(1.20149, 0, 0, 1.20149, 351.15, 57.8)" opacity="1">
</g>
<g id="PathID_13" transform="matrix(1.20149, 0, 0, 1.20149, 378.55, 57.8)" opacity="1">
<path style="fill:#4A7EBC;fill-opacity:1" d="M8.55 -26.6L18.6 -26.6L18.6 -22.6L8.55 -22.6L8.55 -10.35Q8.55 -8.35 8.85 -7.05Q9.15 -5.7 9.75 -5Q10.4 -4.25 11.3 -3.95Q12.2 -3.6 13.45 -3.6Q15.6 -3.6 16.9 -4.1L18.75 -4.8L19.65 -0.85Q18.95 -0.5 17.15 0Q15.35 0.55 13.05 0.55Q10.35 0.55 8.55 -0.1Q6.8 -0.8 5.7 -2.2Q4.65 -3.55 4.2 -5.6Q3.8 -7.6 3.8 -10.3L3.8 -34.05L8.55 -34.85L8.55 -26.6" />
</g>
<g id="PathID_14" transform="matrix(1.20149, 0, 0, 1.20149, 378.55, 57.8)" opacity="1">
</g>
<g id="PathID_15" transform="matrix(1.20149, 0, 0, 1.20149, 403.3, 57.8)" opacity="1">
<path style="fill:#4A7EBC;fill-opacity:1" d="M27.6 -13.3Q27.6 -10.1 26.65 -7.55Q25.75 -5 24.1 -3.15Q22.4 -1.3 20.1 -0.3Q17.8 0.65 15.1 0.65Q12.4 0.65 10.05 -0.3Q7.75 -1.3 6.1 -3.15Q4.45 -5 3.5 -7.55Q2.6 -10.1 2.6 -13.3Q2.6 -16.4 3.5 -19Q4.45 -21.6 6.1 -23.45Q7.75 -25.3 10.05 -26.3Q12.4 -27.3 15.1 -27.3Q17.8 -27.3 20.1 -26.3Q22.4 -25.3 24.1 -23.45Q25.75 -21.6 26.65 -19Q27.6 -16.4 27.6 -13.3M22.6 -13.3Q22.6 -17.8 20.6 -20.45Q18.55 -23.1 15.1 -23.1Q11.6 -23.1 9.6 -20.45Q7.55 -17.8 7.55 -13.3Q7.55 -8.8 9.6 -6.15Q11.6 -3.5 15.1 -3.5Q18.55 -3.5 20.6 -6.15Q22.6 -8.8 22.6 -13.3" />
</g>
<g id="PathID_16" transform="matrix(1.20149, 0, 0, 1.20149, 403.3, 57.8)" opacity="1">
</g>
<g id="PathID_17" transform="matrix(1.20149, 0, 0, 1.20149, 439.55, 57.8)" opacity="1">
<path style="fill:#4A7EBC;fill-opacity:1" d="M22.55 -13.25Q22.55 -17.9 20.25 -20.4Q17.95 -22.9 14.1 -22.9Q11.95 -22.9 10.75 -22.75Q9.55 -22.6 8.85 -22.4L8.85 -5.6Q9.7 -4.9 11.35 -4.25Q13 -3.55 14.95 -3.55Q17 -3.55 18.45 -4.3Q19.9 -5.05 20.85 -6.35Q21.75 -7.65 22.15 -9.45Q22.55 -11.2 22.55 -13.25M27.55 -13.25Q27.55 -10.25 26.75 -7.65Q25.95 -5.1 24.4 -3.25Q22.85 -1.4 20.65 -0.4Q18.4 0.6 15.55 0.6Q13.25 0.6 11.5 0Q9.7 -0.6 8.85 -1.15L8.85 9.45L4.1 9.45L4.1 -25.8L8.3 -26.7Q10.85 -27.15 14.15 -27.15Q17.25 -27.15 19.7 -26.2Q22.15 -25.25 23.9 -23.45Q25.65 -21.65 26.6 -19.05Q27.55 -16.45 27.55 -13.25" />
</g>
<g id="PathID_18" transform="matrix(1.20149, 0, 0, 1.20149, 439.55, 57.8)" opacity="1">
</g>
<g id="PathID_19" transform="matrix(1.20149, 0, 0, 1.20149, 475.75, 57.8)" opacity="1">
<path style="fill:#4A7EBC;fill-opacity:1" d="M27.6 -13.3Q27.6 -10.1 26.65 -7.55Q25.75 -5 24.1 -3.15Q22.4 -1.3 20.1 -0.3Q17.8 0.65 15.1 0.65Q12.4 0.65 10.05 -0.3Q7.75 -1.3 6.1 -3.15Q4.45 -5 3.5 -7.55Q2.6 -10.1 2.6 -13.3Q2.6 -16.4 3.5 -19Q4.45 -21.6 6.1 -23.45Q7.75 -25.3 10.05 -26.3Q12.4 -27.3 15.1 -27.3Q17.8 -27.3 20.1 -26.3Q22.4 -25.3 24.1 -23.45Q25.75 -21.6 26.65 -19Q27.6 -16.4 27.6 -13.3M22.6 -13.3Q22.6 -17.8 20.6 -20.45Q18.55 -23.1 15.1 -23.1Q11.6 -23.1 9.6 -20.45Q7.55 -17.8 7.55 -13.3Q7.55 -8.8 9.6 -6.15Q11.6 -3.5 15.1 -3.5Q18.55 -3.5 20.6 -6.15Q22.6 -8.8 22.6 -13.3" />
</g>
<g id="PathID_20" transform="matrix(1.20149, 0, 0, 1.20149, 475.75, 57.8)" opacity="1">
</g>
<g id="PathID_21" transform="matrix(1.20149, 0, 0, 1.20149, 512.05, 57.8)" opacity="1">
<path style="fill:#4A7EBC;fill-opacity:1" d="M10.3 -3.4Q13.2 -3.4 14.6 -4.2Q16 -4.95 16 -6.65Q16 -8.4 14.65 -9.4Q13.25 -10.45 10.05 -11.7L7.15 -12.95Q5.7 -13.6 4.7 -14.5Q3.65 -15.35 3.05 -16.6Q2.45 -17.8 2.45 -19.6Q2.45 -23.15 5.05 -25.2Q7.65 -27.3 12.15 -27.3Q13.3 -27.3 14.45 -27.15L16.55 -26.85L18.25 -26.45L19.4 -26.1L18.5 -22Q17.75 -22.4 16.1 -22.85Q14.5 -23.3 12.15 -23.3Q10.2 -23.3 8.7 -22.5Q7.2 -21.7 7.2 -20Q7.2 -19.15 7.55 -18.45Q7.85 -17.8 8.55 -17.25Q9.25 -16.75 10.3 -16.25Q11.3 -15.8 12.75 -15.3Q14.65 -14.6 16.1 -13.9Q17.6 -13.2 18.65 -12.3Q19.7 -11.35 20.25 -10.05Q20.85 -8.75 20.85 -6.85Q20.85 -3.15 18.1 -1.25Q15.35 0.6 10.3 0.6Q6.75 0.6 4.75 0Q2.75 -0.55 2.05 -0.85L2.9 -4.95L5.5 -4.05Q7.3 -3.4 10.3 -3.4" />
</g>
<g id="PathID_22" transform="matrix(1.20149, 0, 0, 1.20149, 512.05, 57.8)" opacity="1">
</g>
<g id="PathID_23" transform="matrix(1.20149, 0, 0, 1.20149, 539.45, 57.8)" opacity="1">
<path style="fill:#4A7EBC;fill-opacity:1" d="M8.55 -26.6L18.6 -26.6L18.6 -22.6L8.55 -22.6L8.55 -10.35Q8.55 -8.35 8.85 -7.05Q9.15 -5.7 9.75 -5Q10.4 -4.25 11.3 -3.95Q12.2 -3.6 13.45 -3.6Q15.6 -3.6 16.9 -4.1L18.75 -4.8L19.65 -0.85Q18.95 -0.5 17.15 0Q15.35 0.55 13.05 0.55Q10.35 0.55 8.55 -0.1Q6.8 -0.8 5.7 -2.2Q4.65 -3.55 4.2 -5.6Q3.8 -7.6 3.8 -10.3L3.8 -34.05L8.55 -34.85L8.55 -26.6" />
</g>
<g id="PathID_24" transform="matrix(1.20149, 0, 0, 1.20149, 539.45, 57.8)" opacity="1">
</g>
<g id="PathID_25" transform="matrix(0.78125, 0, 0, 0.78125, 259.05, 125)" opacity="1">
<path style="fill:#4A7EBC;fill-opacity:1" d="M6.95 -26.55L25.45 -26.55L25.45 -3.7L28.3 -3.7L28.3 7.55L24.6 7.55L24.6 0L3.7 0L3.7 7.55L0 7.55L0 -3.7L2.4 -3.7Q7.15 -10.15 6.95 -26.55M10.7 -22.8Q10.2 -9.85 6.7 -3.7L20.95 -3.7L20.95 -22.8L10.7 -22.8" />
</g>
<g id="PathID_26" transform="matrix(0.78125, 0, 0, 0.78125, 259.05, 125)" opacity="1">
</g>
<g id="PathID_27" transform="matrix(0.78125, 0, 0, 0.78125, 282.4, 125)" opacity="1">
<path style="fill:#4A7EBC;fill-opacity:1" d="M1.7 -13.25Q1.7 -20.65 5.8 -24.2Q9.2 -27.15 14.15 -27.15Q19.6 -27.15 23.1 -23.55Q26.6 -19.95 26.6 -13.65Q26.6 -8.5 25.05 -5.55Q23.5 -2.65 20.55 -1Q17.6 0.6 14.15 0.6Q8.55 0.6 5.1 -2.95Q1.7 -6.55 1.7 -13.25M6.35 -13.25Q6.35 -8.15 8.55 -5.6Q10.75 -3.1 14.15 -3.1Q17.5 -3.1 19.7 -5.6Q21.95 -8.15 21.95 -13.4Q21.95 -18.3 19.7 -20.85Q17.45 -23.4 14.15 -23.4Q10.75 -23.4 8.55 -20.85Q6.35 -18.35 6.35 -13.25" />
</g>
<g id="PathID_28" transform="matrix(0.78125, 0, 0, 0.78125, 282.4, 125)" opacity="1">
</g>
<g id="PathID_29" transform="matrix(0.78125, 0, 0, 0.78125, 304.65, 125)" opacity="1">
<path style="fill:#4A7EBC;fill-opacity:1" d="M20.65 -9.75L25.1 -9.15Q24.35 -4.55 21.35 -1.95Q18.4 0.6 14.05 0.6Q8.65 0.6 5.35 -2.95Q2.05 -6.5 2.05 -13.15Q2.05 -17.45 3.45 -20.65Q4.85 -23.9 7.75 -25.5Q10.65 -27.15 14.05 -27.15Q18.4 -27.15 21.1 -24.95Q23.85 -22.8 24.65 -18.8L20.25 -18.1Q19.6 -20.75 18 -22.1Q16.45 -23.45 14.25 -23.45Q10.9 -23.45 8.8 -21Q6.7 -18.55 6.7 -13.3Q6.7 -7.95 8.7 -5.5Q10.75 -3.1 14 -3.1Q16.65 -3.1 18.4 -4.7Q20.15 -6.35 20.65 -9.75" />
</g>
<g id="PathID_30" transform="matrix(0.78125, 0, 0, 0.78125, 304.65, 125)" opacity="1">
</g>
<g id="PathID_31" transform="matrix(0.78125, 0, 0, 0.78125, 324.65, 125)" opacity="1">
<path style="fill:#4A7EBC;fill-opacity:1" d="M0.95 -26.55L22.55 -26.55L22.55 -22.8L14 -22.8L14 0L9.5 0L9.5 -22.8L0.95 -22.8L0.95 -26.55" />
</g>
<g id="PathID_32" transform="matrix(0.78125, 0, 0, 0.78125, 324.65, 125)" opacity="1">
</g>
<g id="PathID_33" transform="matrix(0.78125, 0, 0, 0.78125, 342.95, 125)" opacity="1">
<path style="fill:#4A7EBC;fill-opacity:1" d="M20.7 -3.35Q18.2 -1.15 15.85 -0.25Q13.55 0.6 10.9 0.6Q6.55 0.6 4.2 -1.5Q1.85 -3.65 1.85 -7Q1.85 -8.95 2.7 -10.55Q3.6 -12.15 5.05 -13.1Q6.5 -14.1 8.3 -14.6Q9.6 -14.95 12.3 -15.3Q17.75 -15.95 20.3 -16.85L20.35 -18Q20.35 -20.75 19.05 -21.85Q17.35 -23.4 13.95 -23.4Q10.75 -23.4 9.25 -22.25Q7.75 -21.15 7.05 -18.35L2.65 -18.95Q3.25 -21.75 4.6 -23.5Q6 -25.25 8.6 -26.2Q11.2 -27.15 14.6 -27.15Q18 -27.15 20.1 -26.3Q22.25 -25.5 23.25 -24.3Q24.25 -23.1 24.65 -21.25Q24.9 -20.1 24.9 -17.1L24.9 -11.1Q24.9 -4.85 25.15 -3.15Q25.45 -1.5 26.3 0L21.6 0Q20.9 -1.4 20.7 -3.35M20.3 -13.3Q17.85 -12.3 12.95 -11.6Q10.15 -11.2 9 -10.7Q7.85 -10.2 7.25 -9.2Q6.65 -8.25 6.65 -7.1Q6.65 -5.3 8 -4.1Q9.35 -2.95 12 -2.95Q14.6 -2.95 16.6 -4.05Q18.65 -5.2 19.6 -7.15Q20.3 -8.65 20.3 -11.65L20.3 -13.3" />
</g>
<g id="PathID_34" transform="matrix(0.78125, 0, 0, 0.78125, 342.95, 125)" opacity="1">
</g>
<g id="PathID_35" transform="matrix(0.78125, 0, 0, 0.78125, 365.2, 125)" opacity="1">
<path style="fill:#4A7EBC;fill-opacity:1" d="M3.4 -26.55L13.75 -26.55Q17.55 -26.55 19.4 -25.9Q21.25 -25.25 22.6 -23.55Q23.95 -21.85 23.95 -19.5Q23.95 -17.6 23.15 -16.15Q22.35 -14.75 20.75 -13.85Q22.65 -13.2 23.9 -11.45Q25.15 -9.75 25.15 -7.4Q24.9 -3.65 22.45 -1.8Q20 0 15.3 0L3.4 0L3.4 -26.55M7.9 -15.4L12.6 -15.4Q15.45 -15.4 16.5 -15.65Q17.6 -15.95 18.45 -16.85Q19.3 -17.8 19.3 -19.05Q19.3 -21.15 17.8 -21.95Q16.35 -22.8 12.75 -22.8L7.9 -22.8L7.9 -15.4M7.9 -3.7L13.75 -3.7Q17.55 -3.7 18.95 -4.55Q20.4 -5.45 20.5 -7.65Q20.5 -8.9 19.65 -10Q18.85 -11.1 17.5 -11.4Q16.2 -11.7 13.3 -11.7L7.9 -11.7L7.9 -3.7" />
</g>
<g id="PathID_36" transform="matrix(0.78125, 0, 0, 0.78125, 365.2, 125)" opacity="1">
</g>
<g id="PathID_37" transform="matrix(0.78125, 0, 0, 0.78125, 386.45, 125)" opacity="1">
<path style="fill:#4A7EBC;fill-opacity:1" d="M3.35 -26.55L7.85 -26.55L7.85 -15.1Q10 -15.1 10.85 -15.9Q11.7 -16.7 13.4 -20.7Q14.7 -23.85 15.5 -24.85Q16.35 -25.85 17.4 -26.2Q18.5 -26.55 20.9 -26.55L21.8 -26.55L21.8 -22.8L20.55 -22.85Q18.75 -22.85 18.25 -22.3Q17.75 -21.75 16.65 -19.05Q15.65 -16.45 14.8 -15.45Q13.95 -14.45 12.15 -13.65Q15.05 -12.85 17.85 -8.2L22.8 0L17.85 0L13 -8.2Q11.55 -10.7 10.45 -11.5Q9.35 -12.3 7.85 -12.3L7.85 0L3.35 0L3.35 -26.55" />
</g>
<g id="PathID_38" transform="matrix(0.78125, 0, 0, 0.78125, 386.45, 125)" opacity="1">
</g>
<g id="PathID_39" transform="matrix(0.78125, 0, 0, 0.78125, 403.95, 125)" opacity="1">
<path style="fill:#4A7EBC;fill-opacity:1" d="M20.7 -3.35Q18.2 -1.15 15.85 -0.25Q13.55 0.6 10.9 0.6Q6.55 0.6 4.2 -1.5Q1.85 -3.65 1.85 -7Q1.85 -8.95 2.7 -10.55Q3.6 -12.15 5.05 -13.1Q6.5 -14.1 8.3 -14.6Q9.6 -14.95 12.3 -15.3Q17.75 -15.95 20.3 -16.85L20.35 -18Q20.35 -20.75 19.05 -21.85Q17.35 -23.4 13.95 -23.4Q10.75 -23.4 9.25 -22.25Q7.75 -21.15 7.05 -18.35L2.65 -18.95Q3.25 -21.75 4.6 -23.5Q6 -25.25 8.6 -26.2Q11.2 -27.15 14.6 -27.15Q18 -27.15 20.1 -26.3Q22.25 -25.5 23.25 -24.3Q24.25 -23.1 24.65 -21.25Q24.9 -20.1 24.9 -17.1L24.9 -11.1Q24.9 -4.85 25.15 -3.15Q25.45 -1.5 26.3 0L21.6 0Q20.9 -1.4 20.7 -3.35M20.3 -13.3Q17.85 -12.3 12.95 -11.6Q10.15 -11.2 9 -10.7Q7.85 -10.2 7.25 -9.2Q6.65 -8.25 6.65 -7.1Q6.65 -5.3 8 -4.1Q9.35 -2.95 12 -2.95Q14.6 -2.95 16.6 -4.05Q18.65 -5.2 19.6 -7.15Q20.3 -8.65 20.3 -11.65L20.3 -13.3" />
</g>
<g id="PathID_40" transform="matrix(0.78125, 0, 0, 0.78125, 403.95, 125)" opacity="1">
</g>
<g id="PathID_41" transform="matrix(0.78125, 0, 0, 0.78125, 432.3, 125)" opacity="1">
<path style="fill:#4A7EBC;fill-opacity:1" d="M22.75 -37.5L26.75 -37.45Q26.45 -34.75 25.55 -33.7Q24.65 -32.65 23.2 -32.35Q21.75 -32.05 17.6 -32.05Q12.05 -32.05 10 -30.95Q8 -29.9 7.1 -27.5Q6.25 -25.15 6.15 -21.45Q7.8 -24 10.05 -25.25Q12.35 -26.55 15.2 -26.55Q20.45 -26.55 23.85 -22.95Q27.3 -19.35 27.3 -13.25Q27.3 -8.6 25.55 -5.6Q23.85 -2.65 21.45 -1Q19.1 0.6 15.05 0.6Q10.3 0.6 7.65 -1.55Q5.05 -3.7 3.65 -7.05Q2.3 -10.45 2.3 -18.8Q2.3 -29.35 5.8 -33Q9.35 -36.65 16.75 -36.65Q21.3 -36.65 21.9 -36.8Q22.55 -36.95 22.75 -37.5M22.6 -13.35Q22.6 -17.5 20.6 -20.15Q18.65 -22.8 15.1 -22.8Q11.35 -22.8 9.35 -20Q7.35 -17.2 7.35 -12.55Q7.35 -7.9 9.55 -5.45Q11.8 -3.05 15.05 -3.05Q18.4 -3.05 20.5 -5.85Q22.6 -8.7 22.6 -13.35" />
</g>
<g id="PathID_42" transform="matrix(0.78125, 0, 0, 0.78125, 432.3, 125)" opacity="1">
</g>
<g id="PathID_43" transform="matrix(0.78125, 0, 0, 0.78125, 455.2, 125)" opacity="1">
<path style="fill:#4A7EBC;fill-opacity:1" d="M5.6 -26.55L26.5 -26.55L26.5 0.05L22 0.05L22 -22.8L10.1 -22.8L10.1 -9.55Q10.1 -4.95 9.75 -3.45Q9.45 -2 8.1 -0.9Q6.75 0.2 4.2 0.2Q2.65 0.2 0.6 0L0.6 -3.75L2.55 -3.75Q3.95 -3.75 4.55 -4Q5.15 -4.3 5.35 -4.9Q5.6 -5.55 5.6 -9L5.6 -26.55" />
</g>
<g id="PathID_44" transform="matrix(0.78125, 0, 0, 0.78125, 455.2, 125)" opacity="1">
</g>
<g id="PathID_45" transform="matrix(0.78125, 0, 0, 0.78125, 478.55, 125)" opacity="1">
<path style="fill:#4A7EBC;fill-opacity:1" d="M3.4 -26.55L7.9 -26.55L7.9 -6.3L20.35 -26.55L25.2 -26.55L25.2 0L20.7 0L20.7 -20.1L8.25 0L3.4 0L3.4 -26.55" />
</g>
<g id="PathID_46" transform="matrix(0.78125, 0, 0, 0.78125, 478.55, 125)" opacity="1">
</g>
<g id="PathID_47" transform="matrix(0.78125, 0, 0, 0.78125, 500.85, 125)" opacity="1">
<path style="fill:#4A7EBC;fill-opacity:1" d="M9.3 -12L9.3 -15.55Q12.1 -15.55 13.1 -15.75Q14.15 -15.95 15.05 -16.95Q16 -17.95 16 -19.45Q16 -21.25 14.75 -22.35Q13.55 -23.45 11.65 -23.45Q7.9 -23.45 6.4 -19L2.1 -19.7Q4.05 -27.15 11.7 -27.15Q15.95 -27.15 18.35 -24.8Q20.8 -22.5 20.8 -19.25Q20.8 -16 17.65 -14.1Q19.65 -13 20.65 -11.35Q21.65 -9.7 21.65 -7.4Q21.65 -3.85 19.05 -1.6Q16.45 0.6 11.75 0.6Q2.7 0.6 1.25 -7.5L5.5 -8.4Q6.05 -5.85 7.8 -4.45Q9.55 -3.05 11.85 -3.05Q14.1 -3.05 15.6 -4.3Q17.15 -5.6 17.15 -7.6Q17.15 -9.15 16.2 -10.3Q15.25 -11.45 14.15 -11.7Q13.1 -12 10.3 -12L9.3 -12" />
</g>
<g id="PathID_48" transform="matrix(0.78125, 0, 0, 0.78125, 500.85, 125)" opacity="1">
</g>
<g id="PathID_49" transform="matrix(0.78125, 0, 0, 0.78125, 519.2, 125)" opacity="1">
<path style="fill:#4A7EBC;fill-opacity:1" d="M3.35 -26.55L7.85 -26.55L7.85 -15.1Q10 -15.1 10.85 -15.9Q11.7 -16.7 13.4 -20.7Q14.7 -23.85 15.5 -24.85Q16.35 -25.85 17.4 -26.2Q18.5 -26.55 20.9 -26.55L21.8 -26.55L21.8 -22.8L20.55 -22.85Q18.75 -22.85 18.25 -22.3Q17.75 -21.75 16.65 -19.05Q15.65 -16.45 14.8 -15.45Q13.95 -14.45 12.15 -13.65Q15.05 -12.85 17.85 -8.2L22.8 0L17.85 0L13 -8.2Q11.55 -10.7 10.45 -11.5Q9.35 -12.3 7.85 -12.3L7.85 0L3.35 0L3.35 -26.55" />
</g>
<g id="PathID_50" transform="matrix(0.78125, 0, 0, 0.78125, 519.2, 125)" opacity="1">
</g>
<g id="PathID_51" transform="matrix(0.78125, 0, 0, 0.78125, 536.7, 125)" opacity="1">
<path style="fill:#4A7EBC;fill-opacity:1" d="M1.7 -13.25Q1.7 -20.65 5.8 -24.2Q9.2 -27.15 14.15 -27.15Q19.6 -27.15 23.1 -23.55Q26.6 -19.95 26.6 -13.65Q26.6 -8.5 25.05 -5.55Q23.5 -2.65 20.55 -1Q17.6 0.6 14.15 0.6Q8.55 0.6 5.1 -2.95Q1.7 -6.55 1.7 -13.25M6.35 -13.25Q6.35 -8.15 8.55 -5.6Q10.75 -3.1 14.15 -3.1Q17.5 -3.1 19.7 -5.6Q21.95 -8.15 21.95 -13.4Q21.95 -18.3 19.7 -20.85Q17.45 -23.4 14.15 -23.4Q10.75 -23.4 8.55 -20.85Q6.35 -18.35 6.35 -13.25" />
</g>
<g id="PathID_52" transform="matrix(0.78125, 0, 0, 0.78125, 536.7, 125)" opacity="1">
</g>
</svg>
